<mxfile host="Electron" modified="2023-09-24T19:06:36.248Z" agent="Mozilla/5.0 (X11; Linux x86_64) AppleWebKit/537.36 (KHTML, like Gecko) draw.io/21.7.5 Chrome/114.0.5735.289 Electron/25.8.1 Safari/537.36" etag="FgnoEsWgWLTaxcAS0eB3" version="21.7.5" type="device">
  <diagram id="C5RBs43oDa-KdzZeNtuy" name="Page-1">
    <mxGraphModel dx="3122" dy="708" grid="1" gridSize="10" guides="1" tooltips="1" connect="1" arrows="1" fold="1" page="1" pageScale="1" pageWidth="827" pageHeight="1169" background="none" math="0" shadow="1">
      <root>
        <mxCell id="WIyWlLk6GJQsqaUBKTNV-0" />
        <mxCell id="WIyWlLk6GJQsqaUBKTNV-1" parent="WIyWlLk6GJQsqaUBKTNV-0" />
        <mxCell id="a-kOTvVB8mhFepZbzQ5s-10" style="edgeStyle=orthogonalEdgeStyle;rounded=0;orthogonalLoop=1;jettySize=auto;html=1;exitX=0.5;exitY=0;exitDx=0;exitDy=0;entryX=0;entryY=0.5;entryDx=0;entryDy=0;" parent="WIyWlLk6GJQsqaUBKTNV-1" source="a-kOTvVB8mhFepZbzQ5s-1" target="a-kOTvVB8mhFepZbzQ5s-9" edge="1">
          <mxGeometry relative="1" as="geometry" />
        </mxCell>
        <mxCell id="4jNg7d_MysZSZpwRhQK7-7" value="Adds new files" style="edgeLabel;html=1;align=center;verticalAlign=middle;resizable=0;points=[];" vertex="1" connectable="0" parent="a-kOTvVB8mhFepZbzQ5s-10">
          <mxGeometry x="-0.0915" y="-1" relative="1" as="geometry">
            <mxPoint x="13" y="-11" as="offset" />
          </mxGeometry>
        </mxCell>
        <mxCell id="a-kOTvVB8mhFepZbzQ5s-1" value="New file trigger Job" style="rounded=1;whiteSpace=wrap;html=1;" parent="WIyWlLk6GJQsqaUBKTNV-1" vertex="1">
          <mxGeometry x="-720" y="740" width="130" height="80" as="geometry" />
        </mxCell>
        <mxCell id="a-kOTvVB8mhFepZbzQ5s-3" style="edgeStyle=orthogonalEdgeStyle;rounded=0;orthogonalLoop=1;jettySize=auto;html=1;exitX=0.5;exitY=0;exitDx=0;exitDy=0;entryX=0;entryY=0.5;entryDx=0;entryDy=0;" parent="WIyWlLk6GJQsqaUBKTNV-1" source="a-kOTvVB8mhFepZbzQ5s-2" target="a-kOTvVB8mhFepZbzQ5s-1" edge="1">
          <mxGeometry relative="1" as="geometry" />
        </mxCell>
        <mxCell id="4jNg7d_MysZSZpwRhQK7-12" value="Message containing&lt;br&gt;all new files" style="edgeLabel;html=1;align=center;verticalAlign=middle;resizable=0;points=[];" vertex="1" connectable="0" parent="a-kOTvVB8mhFepZbzQ5s-3">
          <mxGeometry x="-0.0034" y="6" relative="1" as="geometry">
            <mxPoint x="6" y="30" as="offset" />
          </mxGeometry>
        </mxCell>
        <mxCell id="a-kOTvVB8mhFepZbzQ5s-15" style="edgeStyle=orthogonalEdgeStyle;rounded=0;orthogonalLoop=1;jettySize=auto;html=1;exitX=0.5;exitY=1;exitDx=0;exitDy=0;entryX=0.07;entryY=0.4;entryDx=0;entryDy=0;entryPerimeter=0;startArrow=classic;startFill=1;endArrow=none;endFill=0;" parent="WIyWlLk6GJQsqaUBKTNV-1" source="a-kOTvVB8mhFepZbzQ5s-2" target="a-kOTvVB8mhFepZbzQ5s-5" edge="1">
          <mxGeometry relative="1" as="geometry">
            <Array as="points">
              <mxPoint x="-780" y="940" />
              <mxPoint x="-670" y="940" />
            </Array>
          </mxGeometry>
        </mxCell>
        <mxCell id="a-kOTvVB8mhFepZbzQ5s-16" value="Detects change" style="edgeLabel;html=1;align=center;verticalAlign=middle;resizable=0;points=[];" parent="a-kOTvVB8mhFepZbzQ5s-15" vertex="1" connectable="0">
          <mxGeometry x="-0.0956" relative="1" as="geometry">
            <mxPoint x="-4" y="10" as="offset" />
          </mxGeometry>
        </mxCell>
        <mxCell id="a-kOTvVB8mhFepZbzQ5s-2" value="Kafka" style="rounded=1;whiteSpace=wrap;html=1;" parent="WIyWlLk6GJQsqaUBKTNV-1" vertex="1">
          <mxGeometry x="-840" y="860" width="120" height="60" as="geometry" />
        </mxCell>
        <mxCell id="a-kOTvVB8mhFepZbzQ5s-39" style="edgeStyle=orthogonalEdgeStyle;rounded=0;orthogonalLoop=1;jettySize=auto;html=1;exitX=0.88;exitY=0.25;exitDx=0;exitDy=0;exitPerimeter=0;entryX=0.25;entryY=1;entryDx=0;entryDy=0;" parent="WIyWlLk6GJQsqaUBKTNV-1" source="a-kOTvVB8mhFepZbzQ5s-5" target="a-kOTvVB8mhFepZbzQ5s-37" edge="1">
          <mxGeometry relative="1" as="geometry" />
        </mxCell>
        <mxCell id="4jNg7d_MysZSZpwRhQK7-0" value="Collects Files" style="edgeLabel;html=1;align=center;verticalAlign=middle;resizable=0;points=[];" vertex="1" connectable="0" parent="a-kOTvVB8mhFepZbzQ5s-39">
          <mxGeometry x="-0.2605" y="-1" relative="1" as="geometry">
            <mxPoint x="-6" y="-14" as="offset" />
          </mxGeometry>
        </mxCell>
        <mxCell id="a-kOTvVB8mhFepZbzQ5s-5" value="Raw&lt;br&gt;bucket" style="ellipse;shape=cloud;whiteSpace=wrap;html=1;" parent="WIyWlLk6GJQsqaUBKTNV-1" vertex="1">
          <mxGeometry x="-680" y="930" width="150" height="110" as="geometry" />
        </mxCell>
        <mxCell id="a-kOTvVB8mhFepZbzQ5s-9" value="RDF Database" style="rounded=1;whiteSpace=wrap;html=1;" parent="WIyWlLk6GJQsqaUBKTNV-1" vertex="1">
          <mxGeometry x="-320" y="610" width="320" height="60" as="geometry" />
        </mxCell>
        <mxCell id="a-kOTvVB8mhFepZbzQ5s-21" style="edgeStyle=orthogonalEdgeStyle;rounded=0;orthogonalLoop=1;jettySize=auto;html=1;exitX=0.625;exitY=0.2;exitDx=0;exitDy=0;exitPerimeter=0;entryX=0.25;entryY=1;entryDx=0;entryDy=0;" parent="WIyWlLk6GJQsqaUBKTNV-1" source="a-kOTvVB8mhFepZbzQ5s-11" target="a-kOTvVB8mhFepZbzQ5s-18" edge="1">
          <mxGeometry relative="1" as="geometry" />
        </mxCell>
        <mxCell id="4jNg7d_MysZSZpwRhQK7-2" value="Collects&amp;nbsp;&lt;br&gt;StateVectors" style="edgeLabel;html=1;align=center;verticalAlign=middle;resizable=0;points=[];" vertex="1" connectable="0" parent="a-kOTvVB8mhFepZbzQ5s-21">
          <mxGeometry x="0.1093" y="1" relative="1" as="geometry">
            <mxPoint as="offset" />
          </mxGeometry>
        </mxCell>
        <mxCell id="a-kOTvVB8mhFepZbzQ5s-11" value="Preprocessed &lt;br&gt;bucket" style="ellipse;shape=cloud;whiteSpace=wrap;html=1;" parent="WIyWlLk6GJQsqaUBKTNV-1" vertex="1">
          <mxGeometry x="-435" y="870" width="150" height="110" as="geometry" />
        </mxCell>
        <mxCell id="a-kOTvVB8mhFepZbzQ5s-19" style="edgeStyle=orthogonalEdgeStyle;rounded=0;orthogonalLoop=1;jettySize=auto;html=1;exitX=0.5;exitY=0;exitDx=0;exitDy=0;startArrow=classic;startFill=1;entryX=0.803;entryY=1.044;entryDx=0;entryDy=0;entryPerimeter=0;" parent="WIyWlLk6GJQsqaUBKTNV-1" source="a-kOTvVB8mhFepZbzQ5s-18" target="a-kOTvVB8mhFepZbzQ5s-9" edge="1">
          <mxGeometry relative="1" as="geometry">
            <mxPoint x="-172" y="675" as="targetPoint" />
          </mxGeometry>
        </mxCell>
        <mxCell id="4jNg7d_MysZSZpwRhQK7-10" value="&amp;lt;- Latest model name and StateVectors&lt;br&gt;Register new model -&amp;gt;" style="edgeLabel;html=1;align=center;verticalAlign=middle;resizable=0;points=[];" vertex="1" connectable="0" parent="a-kOTvVB8mhFepZbzQ5s-19">
          <mxGeometry x="0.1" y="1" relative="1" as="geometry">
            <mxPoint x="-31" y="-14" as="offset" />
          </mxGeometry>
        </mxCell>
        <mxCell id="a-kOTvVB8mhFepZbzQ5s-24" style="edgeStyle=orthogonalEdgeStyle;rounded=0;orthogonalLoop=1;jettySize=auto;html=1;exitX=0.75;exitY=1;exitDx=0;exitDy=0;entryX=0.4;entryY=0.1;entryDx=0;entryDy=0;entryPerimeter=0;" parent="WIyWlLk6GJQsqaUBKTNV-1" source="a-kOTvVB8mhFepZbzQ5s-18" target="a-kOTvVB8mhFepZbzQ5s-22" edge="1">
          <mxGeometry relative="1" as="geometry" />
        </mxCell>
        <mxCell id="4jNg7d_MysZSZpwRhQK7-3" value="Dumps&amp;nbsp;&lt;br&gt;Model and &lt;br&gt;training &lt;br&gt;StateVectors" style="edgeLabel;html=1;align=center;verticalAlign=middle;resizable=0;points=[];" vertex="1" connectable="0" parent="a-kOTvVB8mhFepZbzQ5s-24">
          <mxGeometry x="-0.263" y="-1" relative="1" as="geometry">
            <mxPoint as="offset" />
          </mxGeometry>
        </mxCell>
        <mxCell id="a-kOTvVB8mhFepZbzQ5s-18" value="Model Training Job" style="rounded=1;whiteSpace=wrap;html=1;" parent="WIyWlLk6GJQsqaUBKTNV-1" vertex="1">
          <mxGeometry x="-300" y="740" width="130" height="80" as="geometry" />
        </mxCell>
        <mxCell id="a-kOTvVB8mhFepZbzQ5s-29" style="edgeStyle=orthogonalEdgeStyle;rounded=0;orthogonalLoop=1;jettySize=auto;html=1;exitX=0.625;exitY=0.2;exitDx=0;exitDy=0;exitPerimeter=0;entryX=0.25;entryY=1;entryDx=0;entryDy=0;" parent="WIyWlLk6GJQsqaUBKTNV-1" source="a-kOTvVB8mhFepZbzQ5s-22" target="a-kOTvVB8mhFepZbzQ5s-27" edge="1">
          <mxGeometry relative="1" as="geometry" />
        </mxCell>
        <mxCell id="4jNg7d_MysZSZpwRhQK7-5" value="Collects &lt;br&gt;StateVectors" style="edgeLabel;html=1;align=center;verticalAlign=middle;resizable=0;points=[];" vertex="1" connectable="0" parent="a-kOTvVB8mhFepZbzQ5s-29">
          <mxGeometry x="0.5495" y="-3" relative="1" as="geometry">
            <mxPoint as="offset" />
          </mxGeometry>
        </mxCell>
        <mxCell id="a-kOTvVB8mhFepZbzQ5s-22" value="Model &lt;br&gt;bucket" style="ellipse;shape=cloud;whiteSpace=wrap;html=1;" parent="WIyWlLk6GJQsqaUBKTNV-1" vertex="1">
          <mxGeometry x="-260" y="900" width="150" height="110" as="geometry" />
        </mxCell>
        <mxCell id="a-kOTvVB8mhFepZbzQ5s-23" value="Inference&lt;br&gt;bucket" style="ellipse;shape=cloud;whiteSpace=wrap;html=1;" parent="WIyWlLk6GJQsqaUBKTNV-1" vertex="1">
          <mxGeometry x="60" y="860" width="150" height="110" as="geometry" />
        </mxCell>
        <mxCell id="a-kOTvVB8mhFepZbzQ5s-26" value="" style="shape=flexArrow;endArrow=classic;html=1;rounded=0;" parent="WIyWlLk6GJQsqaUBKTNV-1" edge="1">
          <mxGeometry width="50" height="50" relative="1" as="geometry">
            <mxPoint x="-580" y="779.76" as="sourcePoint" />
            <mxPoint x="-520" y="779.76" as="targetPoint" />
          </mxGeometry>
        </mxCell>
        <mxCell id="a-kOTvVB8mhFepZbzQ5s-31" style="edgeStyle=orthogonalEdgeStyle;rounded=0;orthogonalLoop=1;jettySize=auto;html=1;exitX=0.5;exitY=1;exitDx=0;exitDy=0;entryX=0.4;entryY=0.1;entryDx=0;entryDy=0;entryPerimeter=0;" parent="WIyWlLk6GJQsqaUBKTNV-1" source="a-kOTvVB8mhFepZbzQ5s-27" target="a-kOTvVB8mhFepZbzQ5s-23" edge="1">
          <mxGeometry relative="1" as="geometry" />
        </mxCell>
        <mxCell id="4jNg7d_MysZSZpwRhQK7-4" value="Dumps&amp;nbsp;&lt;br&gt;Inference" style="edgeLabel;html=1;align=center;verticalAlign=middle;resizable=0;points=[];" vertex="1" connectable="0" parent="a-kOTvVB8mhFepZbzQ5s-31">
          <mxGeometry x="-0.1726" y="-2" relative="1" as="geometry">
            <mxPoint as="offset" />
          </mxGeometry>
        </mxCell>
        <mxCell id="a-kOTvVB8mhFepZbzQ5s-43" style="edgeStyle=orthogonalEdgeStyle;rounded=0;orthogonalLoop=1;jettySize=auto;html=1;exitX=0.5;exitY=0;exitDx=0;exitDy=0;entryX=0.858;entryY=1.044;entryDx=0;entryDy=0;startArrow=classic;startFill=1;entryPerimeter=0;" parent="WIyWlLk6GJQsqaUBKTNV-1" source="a-kOTvVB8mhFepZbzQ5s-27" target="a-kOTvVB8mhFepZbzQ5s-9" edge="1">
          <mxGeometry relative="1" as="geometry" />
        </mxCell>
        <mxCell id="4jNg7d_MysZSZpwRhQK7-11" value="StateVectors&amp;nbsp;file location -&amp;gt;&lt;br&gt;&amp;lt;-&amp;nbsp; Postprocess result" style="edgeLabel;html=1;align=center;verticalAlign=middle;resizable=0;points=[];" vertex="1" connectable="0" parent="a-kOTvVB8mhFepZbzQ5s-43">
          <mxGeometry x="0.1116" y="-1" relative="1" as="geometry">
            <mxPoint x="42" y="-14" as="offset" />
          </mxGeometry>
        </mxCell>
        <mxCell id="a-kOTvVB8mhFepZbzQ5s-27" value="Inference Job" style="rounded=1;whiteSpace=wrap;html=1;" parent="WIyWlLk6GJQsqaUBKTNV-1" vertex="1">
          <mxGeometry x="-40" y="740" width="130" height="80" as="geometry" />
        </mxCell>
        <mxCell id="a-kOTvVB8mhFepZbzQ5s-28" value="" style="shape=flexArrow;endArrow=classic;html=1;rounded=0;" parent="WIyWlLk6GJQsqaUBKTNV-1" edge="1">
          <mxGeometry width="50" height="50" relative="1" as="geometry">
            <mxPoint x="-120" y="779.66" as="sourcePoint" />
            <mxPoint x="-60" y="779.66" as="targetPoint" />
          </mxGeometry>
        </mxCell>
        <mxCell id="a-kOTvVB8mhFepZbzQ5s-40" style="edgeStyle=orthogonalEdgeStyle;rounded=0;orthogonalLoop=1;jettySize=auto;html=1;exitX=0.75;exitY=1;exitDx=0;exitDy=0;entryX=0.25;entryY=0.25;entryDx=0;entryDy=0;entryPerimeter=0;" parent="WIyWlLk6GJQsqaUBKTNV-1" source="a-kOTvVB8mhFepZbzQ5s-37" target="a-kOTvVB8mhFepZbzQ5s-11" edge="1">
          <mxGeometry relative="1" as="geometry" />
        </mxCell>
        <mxCell id="4jNg7d_MysZSZpwRhQK7-1" value="Dumps&amp;nbsp;&lt;br&gt;StateVectors" style="edgeLabel;html=1;align=center;verticalAlign=middle;resizable=0;points=[];" vertex="1" connectable="0" parent="a-kOTvVB8mhFepZbzQ5s-40">
          <mxGeometry x="0.0378" y="-1" relative="1" as="geometry">
            <mxPoint as="offset" />
          </mxGeometry>
        </mxCell>
        <mxCell id="a-kOTvVB8mhFepZbzQ5s-41" style="edgeStyle=orthogonalEdgeStyle;rounded=0;orthogonalLoop=1;jettySize=auto;html=1;exitX=0.5;exitY=0;exitDx=0;exitDy=0;entryX=0;entryY=1;entryDx=0;entryDy=0;startArrow=classic;startFill=1;" parent="WIyWlLk6GJQsqaUBKTNV-1" source="a-kOTvVB8mhFepZbzQ5s-37" target="a-kOTvVB8mhFepZbzQ5s-9" edge="1">
          <mxGeometry relative="1" as="geometry" />
        </mxCell>
        <mxCell id="4jNg7d_MysZSZpwRhQK7-8" value="&amp;lt;- Raw file location&lt;br&gt;StateVectors&amp;nbsp;file location -&amp;gt;&amp;nbsp;" style="edgeLabel;html=1;align=center;verticalAlign=middle;resizable=0;points=[];" vertex="1" connectable="0" parent="a-kOTvVB8mhFepZbzQ5s-41">
          <mxGeometry x="-0.251" y="-1" relative="1" as="geometry">
            <mxPoint x="13" y="-16" as="offset" />
          </mxGeometry>
        </mxCell>
        <mxCell id="a-kOTvVB8mhFepZbzQ5s-37" value="Preprocessor&lt;br&gt;Job" style="rounded=1;whiteSpace=wrap;html=1;" parent="WIyWlLk6GJQsqaUBKTNV-1" vertex="1">
          <mxGeometry x="-510" y="740" width="130" height="80" as="geometry" />
        </mxCell>
        <mxCell id="a-kOTvVB8mhFepZbzQ5s-42" value="" style="shape=flexArrow;endArrow=classic;html=1;rounded=0;" parent="WIyWlLk6GJQsqaUBKTNV-1" edge="1">
          <mxGeometry width="50" height="50" relative="1" as="geometry">
            <mxPoint x="-370" y="779.58" as="sourcePoint" />
            <mxPoint x="-310" y="779.58" as="targetPoint" />
          </mxGeometry>
        </mxCell>
      </root>
    </mxGraphModel>
  </diagram>
</mxfile>
